<svg width="102" height="102" viewBox="0 0 102 102" fill="none" xmlns="http://www.w3.org/2000/svg">
<g opacity="0.5" clip-path="url(#clip0_67_1137)">
<path d="M50.9971 11.9506C49.3467 11.9506 48.0088 13.2885 48.0088 14.9388C48.0088 16.5892 49.3467 17.9271 50.9971 17.9271C60.8851 17.9271 68.9297 25.9704 68.9297 35.8568C68.9297 37.5071 70.2677 38.8451 71.918 38.8451C73.5684 38.8451 74.9063 37.5071 74.9063 35.8568C74.9063 22.6749 64.1808 11.9506 50.9971 11.9506Z" fill="white"/>
<path d="M43.2977 0.802206C29.7967 3.62334 18.8496 14.4656 15.9691 28.0505C13.5368 39.522 16.5341 51.0388 24.1923 59.648C27.9358 63.8561 30.0826 69.4109 30.0826 74.9036V80.8802C30.0826 84.8566 32.6857 88.2347 36.2769 89.4047C37.4578 96.3824 43.5141 101.997 51.0005 101.997C58.485 101.997 64.5428 96.3842 65.7242 89.4047C69.3153 88.2347 71.9185 84.8566 71.9185 80.88V74.9034C71.9185 69.4 74.0724 63.9119 77.9831 59.4502C83.7075 52.9198 86.8599 44.5407 86.8599 35.8567C86.8599 13.2325 66.1513 -3.97227 43.2977 0.802206ZM51.0005 96.0208C47.1592 96.0208 43.7912 93.3776 42.5475 89.8251H59.4534C58.2099 93.3776 54.8419 96.0208 51.0005 96.0208ZM65.9419 80.8802C65.9419 82.5279 64.6014 83.8684 62.9537 83.8684H39.0474C37.3997 83.8684 36.0591 82.5279 36.0591 80.8802V77.8919H65.9419V80.8802ZM73.4887 55.5111C69.3211 60.2658 66.7569 65.9993 66.1063 71.9153H35.8954C35.2455 65.9961 32.6879 60.2062 28.6581 55.6758C22.2756 48.5008 19.7816 38.8835 21.8158 29.2903C24.1903 18.0914 33.3145 8.99408 44.5203 6.65266C63.6501 2.65494 80.8833 17.021 80.8833 35.8567C80.8833 43.0908 78.2572 50.0708 73.4887 55.5111Z" fill="white"/>
<path d="M8.96484 35.8568H2.98828C1.33795 35.8568 0 37.1948 0 38.8451C0 40.4954 1.33795 41.8334 2.98828 41.8334H8.96484C10.6152 41.8334 11.9531 40.4954 11.9531 38.8451C11.9531 37.1948 10.6152 35.8568 8.96484 35.8568Z" fill="white"/>
<path d="M10.2023 20.916L5.97629 16.69C4.80947 15.5229 2.91729 15.5229 1.75027 16.69C0.583244 17.857 0.583244 19.749 1.75027 20.916L5.97629 25.142C7.14312 26.309 9.0353 26.3092 10.2023 25.142C11.3693 23.975 11.3693 22.083 10.2023 20.916Z" fill="white"/>
<path d="M10.2023 52.5493C9.0353 51.3823 7.14312 51.3823 5.97629 52.5493L1.75027 56.7754C0.583244 57.9424 0.583244 59.8344 1.75027 61.0014C2.91709 62.1684 4.80927 62.1686 5.97629 61.0014L10.2023 56.7754C11.3693 55.6083 11.3693 53.7164 10.2023 52.5493Z" fill="white"/>
<path d="M99.0117 35.8568H93.0352C91.3848 35.8568 90.0469 37.1948 90.0469 38.8451C90.0469 40.4954 91.3848 41.8334 93.0352 41.8334H99.0117C100.662 41.8334 102 40.4954 102 38.8451C102 37.1948 100.662 35.8568 99.0117 35.8568Z" fill="white"/>
<path d="M100.249 16.69C99.0824 15.5229 97.1902 15.5229 96.0232 16.69L91.7971 20.916C90.6301 22.083 90.6301 23.975 91.7971 25.142C92.964 26.3088 94.8561 26.309 96.0232 25.142L100.249 20.916C101.416 19.749 101.416 17.857 100.249 16.69Z" fill="white"/>
<path d="M100.249 56.7754L96.0232 52.5493C94.8563 51.3823 92.9642 51.3823 91.7971 52.5493C90.6301 53.7164 90.6301 55.6083 91.7971 56.7754L96.0232 61.0014C97.19 62.1682 99.0822 62.1684 100.249 61.0014C101.416 59.8344 101.416 57.9424 100.249 56.7754Z" fill="white"/>
</g>
<defs>
<clipPath id="clip0_67_1137">
<rect width="102" height="102" fill="white"/>
</clipPath>
</defs>
</svg>
